<svg xmlns="http://www.w3.org/2000/svg" version="1.1" xmlns:xlink="http://www.w3.org/1999/xlink" xmlns:svgjs="http://svgjs.com/svgjs" width="512" height="512" x="0" y="0" viewBox="0 0 281 281" style="enable-background:new 0 0 512 512" xml:space="preserve"><g><g fill-rule="evenodd" clip-rule="evenodd"><g stroke="#FFFFFC" stroke-linecap="round" stroke-linejoin="round" stroke-miterlimit="10" stroke-width="32.04px" data-darkreader-inline-stroke="" style="--darkreader-inline-stroke: #fffffc;"><path d="M159.77 45.654s-6.473-21.116-26.846-.849C112.55 65.179 38.59 217.131 39.439 232.624c.849 15.492 16.235 18.675 25.255 8.913s22.814-51.995 67.487-73.217c44.673-21.117 91.893-25.255 91.893-25.255s2.441-8.171-37.351-4.032c-39.792 4.138-76.401 17.084-76.401 17.084s34.168-78.099 41.49-87.861 8.17-13.052 8.17-13.052v-9.55z" fill="#000000" data-original="#000000" data-darkreader-inline-fill="" style="--darkreader-inline-fill: #000000;" stroke="#FFFFFC" stroke-width="32.04px"></path><path d="M135.364 44.805s16.236-22.814 24.406-1.592c8.171 21.117 16.235 74.81 40.641 135.824 24.406 61.015 40.641 66.639 40.641 66.639s-37.351 7.321-55.284-17.085c-17.933-24.405-46.371-156.09-46.371-156.09zM72.758 228.592s21.965-26.846 41.49-40.641c19.525-13.794 39.792-21.116 39.792-21.116s-15.492-2.441-44.673 13.794c-29.18 16.235-35.76 33.32-35.76 33.32z" fill="#000000" data-original="#000000" data-darkreader-inline-fill="" style="--darkreader-inline-fill: #000000;" stroke="#FFFFFC" stroke-width="32.04px"></path></g><path fill="#000000" d="M159.77 45.654s-6.473-21.116-26.846-.849C112.55 65.179 38.59 217.131 39.439 232.624c.849 15.492 16.235 18.675 25.255 8.913s22.814-51.995 67.487-73.217c44.673-21.117 91.893-25.255 91.893-25.255s2.441-8.171-37.351-4.032c-39.792 4.138-76.401 17.084-76.401 17.084s34.168-78.099 41.49-87.861 8.17-13.052 8.17-13.052v-9.55z" data-original="#000000" data-darkreader-inline-fill="" style="--darkreader-inline-fill: #000000;"></path><path fill="#000000" d="M135.364 44.805s16.236-22.814 24.406-1.592c8.171 21.117 16.235 74.81 40.641 135.824 24.406 61.015 40.641 66.639 40.641 66.639s-37.351 7.321-55.284-17.085c-17.933-24.405-46.371-156.09-46.371-156.09zM72.758 228.592s21.965-26.846 41.49-40.641c19.525-13.794 39.792-21.116 39.792-21.116s-15.492-2.441-44.673 13.794c-29.18 16.235-35.76 33.32-35.76 33.32z" data-original="#000000" data-darkreader-inline-fill="" style="--darkreader-inline-fill: #000000;"></path></g></g></svg>